<?xml version="1.0" encoding="UTF-8"?>
<svg version="1.1" xmlns="http://www.w3.org/2000/svg" width="115" height="115">
<path d="M0 0 C37.95 0 75.9 0 115 0 C115 37.95 115 75.9 115 115 C77.05 115 39.1 115 0 115 C0 77.05 0 39.1 0 0 Z " fill="#F6FAF9" transform="translate(0,0)"/>
<path d="M0 0 C2.23528551 1.21897166 4.46275173 2.44955316 6.6875 3.6875 C7.31333984 4.02716797 7.93917969 4.36683594 8.58398438 4.71679688 C13.06359154 7.22631502 17.67764622 9.93520767 19.79541016 14.84350586 C20.312574 20.294709 20.30713224 25.76496133 20.35009766 31.23608398 C20.36672001 32.78897014 20.39409235 34.34177787 20.43212891 35.89428711 C20.48678157 38.13956108 20.50874178 40.38305777 20.5234375 42.62890625 C20.54610687 43.32270889 20.56877625 44.01651154 20.59213257 44.7313385 C20.58349609 46.69360352 20.58349609 46.69360352 20 50 C16.54794392 52.83083594 13.85015061 53.41182323 9.4375 53.375 C8.04337891 53.38660156 8.04337891 53.38660156 6.62109375 53.3984375 C3.50282776 52.92442389 2.2687162 52.16977688 0 50 C-0.48101807 47.74104309 -0.48101807 47.74104309 -0.45410156 45.06958008 C-0.45379944 44.06876907 -0.45349731 43.06795807 -0.45318604 42.03681946 C-0.43254089 40.95861435 -0.41189575 39.88040924 -0.390625 38.76953125 C-0.38496521 37.66397385 -0.37930542 36.55841644 -0.37347412 35.4193573 C-0.35105795 31.88330036 -0.30084996 28.34825141 -0.25 24.8125 C-0.22994187 22.41733233 -0.21168991 20.02214879 -0.1953125 17.62695312 C-0.151176 11.75095733 -0.08421128 5.87555067 0 0 Z " fill="#FEA501" transform="translate(47,21)"/>
<path d="M0 0 C3.64521868 1.45808747 6.71662737 2.85255297 10.0625 4.8125 C10.89910156 5.29332031 11.73570313 5.77414063 12.59765625 6.26953125 C15.41695701 8.30034464 17.07689654 10.09278019 19 13 C19.51757812 16.40991211 19.51757812 16.40991211 19.53125 20.27734375 C19.5350769 20.96631241 19.53890381 21.65528107 19.54284668 22.36512756 C19.54555818 23.81659412 19.5382502 25.26811017 19.52148438 26.71948242 C19.50009161 28.92804242 19.52128965 31.1333383 19.546875 33.34179688 C19.54423094 34.75781961 19.53910434 36.17384033 19.53125 37.58984375 C19.52673828 38.86722412 19.52222656 40.14460449 19.51757812 41.46069336 C18.82503273 46.19646252 16.98963098 49.36579113 13.27661133 52.41552734 C12.7173999 52.7192627 12.15818848 53.02299805 11.58203125 53.3359375 C10.96779297 53.67753906 10.35355469 54.01914063 9.72070312 54.37109375 C9.09099609 54.70238281 8.46128906 55.03367188 7.8125 55.375 C7.17119141 55.72949219 6.52988281 56.08398438 5.86914062 56.44921875 C1.20583977 59 1.20583977 59 0 59 C0 39.53 0 20.06 0 0 Z " fill="#AEE55B" transform="translate(70,10)"/>
<path d="M0 0 C8.02366664 3.7239027 14.03458636 6.55187953 19 14 C19.22705078 16.4519043 19.22705078 16.4519043 19.1953125 19.32421875 C19.18886719 20.35224609 19.18242188 21.38027344 19.17578125 22.43945312 C19.15902344 23.51130859 19.14226563 24.58316406 19.125 25.6875 C19.11597656 26.77095703 19.10695313 27.85441406 19.09765625 28.97070312 C19.0740734 31.6473571 19.04116126 34.32356797 19 37 C15.20227968 35.52532359 11.84137578 33.84085465 8.375 31.6875 C7.43398438 31.11386719 6.49296875 30.54023437 5.5234375 29.94921875 C2.73114396 27.79232327 1.569862 26.14197752 0 23 C-0.34057617 20.32104492 -0.34057617 20.32104492 -0.29296875 17.48046875 C-0.28330078 16.45888672 -0.27363281 15.43730469 -0.26367188 14.38476562 C-0.23853516 13.32966797 -0.21339844 12.27457031 -0.1875 11.1875 C-0.17396484 10.11306641 -0.16042969 9.03863281 -0.14648438 7.93164062 C-0.11122577 5.28724545 -0.06194366 2.64388252 0 0 Z " fill="#D72D1E" transform="translate(25,32)"/>
<path d="M0 0 C2.31 0 4.62 0 7 0 C7.79211929 1.89564426 8.58367576 3.79152371 9.375 5.6875 C9.81585938 6.74324219 10.25671875 7.79898438 10.7109375 8.88671875 C11.13632813 9.91410156 11.56171875 10.94148438 12 12 C12.38414063 12.89332031 12.76828125 13.78664063 13.1640625 14.70703125 C14 17 14 17 14 20 C12.02 20 10.04 20 8 20 C7.67 19.01 7.34 18.02 7 17 C4.69 16.67 2.38 16.34 0 16 C-0.33 17.32 -0.66 18.64 -1 20 C-2.98 20 -4.96 20 -7 20 C-4.80962826 13.27954125 -2.44234339 6.63275997 0 0 Z " fill="#CD5656" transform="translate(84,84)"/>
<path d="M0 0 C0.80824219 0.10183594 1.61648437 0.20367187 2.44921875 0.30859375 C3.06410156 0.39238281 3.67898437 0.47617188 4.3125 0.5625 C4.3125 1.8825 4.3125 3.2025 4.3125 4.5625 C0.83924819 5.7202506 -2.04817448 5.63116652 -5.6875 5.5625 C-5.708125 6.861875 -5.72875 8.16125 -5.75 9.5 C-5.76160156 10.23089844 -5.77320313 10.96179688 -5.78515625 11.71484375 C-5.89311184 13.57982141 -5.89311184 13.57982141 -4.6875 14.5625 C-3.40875 14.500625 -2.13 14.43875 -0.8125 14.375 C1.3671875 14.33203125 1.3671875 14.33203125 3.3125 14.5625 C5.3125 16.5625 5.3125 16.5625 6.3125 18.5625 C2.29068385 21.24371076 -0.95986391 21.37594335 -5.6875 20.5625 C-8.7592718 18.85172026 -11.09235654 16.75278693 -12.6875 13.5625 C-13.06260464 10.31159308 -13.35290869 7.71861549 -11.67578125 4.8046875 C-8.07212253 0.32446315 -5.55114569 -0.72406248 0 0 Z " fill="#CA4B4B" transform="translate(19.6875,83.4375)"/>
<path d="M0 0 C0 4.62 0 9.24 0 14 C-10.16725352 14.48415493 -10.16725352 14.48415493 -13.6875 12.4375 C-15.49734698 9.0763556 -15.4783921 6.75879503 -15 3 C-11.65947615 -1.98790548 -5.28736748 -0.17056024 0 0 Z " fill="#CA4949" transform="translate(59,90)"/>
<path d="M0 0 C1.65 0 3.3 0 5 0 C5 2.31 5 4.62 5 7 C6.11375 6.95875 7.2275 6.9175 8.375 6.875 C12 7 12 7 14 9 C14.1953125 11.8203125 14.1953125 11.8203125 14.125 15.125 C14.10695313 16.22070312 14.08890625 17.31640625 14.0703125 18.4453125 C14.03550781 19.70988281 14.03550781 19.70988281 14 21 C12.35 21 10.7 21 9 21 C8.67 18.03 8.34 15.06 8 12 C7.34 12 6.68 12 6 12 C5.67 14.97 5.34 17.94 5 21 C3.35 21 1.7 21 0 21 C0 14.07 0 7.14 0 0 Z " fill="#C94747" transform="translate(28,83)"/>
<path d="M0 0 C0.33 0 0.66 0 1 0 C1 6.93 1 13.86 1 21 C0.67 20.01 0.34 19.02 0 18 C-3.23933381 16.56866646 -5.70054494 16 -9.25 16 C-10.1575 16 -11.065 16 -12 16 C-14 14 -14 14 -14.3125 11.0625 C-14 8 -14 8 -12.9375 6.125 C-11 5 -11 5 -7.5625 5.125 C-3.83483701 5.41058035 -3.83483701 5.41058035 -1.625 2.5 C-1.08875 1.675 -0.5525 0.85 0 0 Z " fill="#F2E9E9" transform="translate(27,83)"/>
<path d="M0 0 C1.98 0 3.96 0 6 0 C6 1.98 6 3.96 6 6 C6.66 6 7.32 6 8 6 C8 7.32 8 8.64 8 10 C7.34 10 6.68 10 6 10 C6 13.3 6 16.6 6 20 C4.02 20 2.04 20 0 20 C0 16.7 0 13.4 0 10 C-0.99 10 -1.98 10 -3 10 C-3 8.68 -3 7.36 -3 6 C-2.01 6 -1.02 6 0 6 C0 4.02 0 2.04 0 0 Z " fill="#CB4F4F" transform="translate(64,84)"/>
<path d="M0 0 C1.98 0 3.96 0 6 0 C6 6.93 6 13.86 6 21 C4.02 21 2.04 21 0 21 C0 14.07 0 7.14 0 0 Z " fill="#CC5151" transform="translate(100,83)"/>
<path d="M0 0 C1.32 0 2.64 0 4 0 C3.67 1.32 3.34 2.64 3 4 C1.68 3.67 0.36 3.34 -1 3 C-0.67 2.01 -0.34 1.02 0 0 Z " fill="#F2EBEB" transform="translate(50,95)"/>
</svg>
